<svg xmlns="http://www.w3.org/2000/svg" aria-hidden="true" overflow="hidden" style="position:absolute;width:0;height:0">
  <defs>
<symbol id="icon-box1-icon" viewBox="0 0 30 32">
<path fill="none" stroke="#fff" style="stroke: var(--color1, #fff)" stroke-linejoin="miter" stroke-linecap="butt" stroke-miterlimit="10" stroke-width="0.4741" d="M22.295 29.458l1.459-5.833c0.167-0.625-0.25-1.292-0.792-1.292h-13.544c-0.542 0-0.958 0.625-0.792 1.292l1.459 5.833h6.168"></path>
<path fill="none" stroke="#fff" style="stroke: var(--color1, #fff)" stroke-linejoin="round" stroke-linecap="butt" stroke-miterlimit="10" stroke-width="0.4741" d="M8.501 28.208l-1.792 3.333c0 0 19.128 0.042 19.17 0l-2.042-3.333"></path>
<path fill="none" stroke="#fff" style="stroke: var(--color1, #fff)" stroke-linejoin="miter" stroke-linecap="butt" stroke-miterlimit="10" stroke-width="0.4741" d="M12.835 2.667c0 0-2.167-0.375-3.251 1.417-0.958 1.625-0.333 3.583-0.667 3.917-0.25 0.25-0.417 2.167 0.083 2.583 0.5 0.375 0.75 0.875 0.875 1.667 0.125 0.75 1.542 1.792 2.917 1.792"></path>
<path fill="none" stroke="#fff" style="stroke: var(--color1, #fff)" stroke-linejoin="miter" stroke-linecap="butt" stroke-miterlimit="10" stroke-width="0.4741" d="M12.835 2.667c0 0 2.25-0.375 3.334 1.417 1 1.625 0.333 3.583 0.667 3.917 0.25 0.25 0.417 2.167-0.083 2.583-0.5 0.375-0.792 0.875-0.917 1.667-0.125 0.75-1.542 1.792-3 1.792"></path>
<path fill="none" stroke="#fff" style="stroke: var(--color1, #fff)" stroke-linejoin="miter" stroke-linecap="butt" stroke-miterlimit="10" stroke-width="0.4741" d="M5.001 7.958c0 0-1.167 1-1.292 1.125s-0.125 1.625-0.125 1.625l-3.042 9.167c0 0-0.625 3.958 0.75 4.833s3.959 0.292 4.876-1.375c0.042-0.042 0.083-0.125 0.083-0.125v4.292"></path>
<path fill="none" stroke="#fff" style="stroke: var(--color1, #fff)" stroke-linejoin="miter" stroke-linecap="butt" stroke-miterlimit="10" stroke-width="0.4741" d="M5.376 12.333l0.125 3.25-0.625 4.292"></path>
<path fill="none" stroke="#fff" style="stroke: var(--color1, #fff)" stroke-linejoin="miter" stroke-linecap="butt" stroke-miterlimit="10" stroke-width="0.4741" d="M5.626 15.667l4.584-1.125 0.333-1.458"></path>
<path fill="none" stroke="#fff" style="stroke: var(--color1, #fff)" stroke-linejoin="miter" stroke-linecap="butt" stroke-miterlimit="10" stroke-width="0.4741" d="M15.419 13.125l0.125 1.25c0 0 5.709 1.625 5.959 2.042 1.042 1.625 1.125 3.875 1.125 3.875"></path>
<path fill="none" stroke="#fff" style="stroke: var(--color1, #fff)" stroke-linejoin="miter" stroke-linecap="butt" stroke-miterlimit="10" stroke-width="0.4741" d="M17.128 0.417h11.46c0.375 0 0.667 0.292 0.667 0.667v7.958c0 0.375-0.292 0.667-0.667 0.667h-6.126l-1.792 1.917-1.709-2.125"></path>
<path fill="none" stroke="#fff" style="stroke: var(--color1, #fff)" stroke-linejoin="miter" stroke-linecap="butt" stroke-miterlimit="10" stroke-width="0.4741" d="M6.168 5.5l0.542 4.958-0.625 1.333-0.583-5.333 0.667-0.958z"></path>
</symbol>
<symbol id="icon-box2-icon" viewBox="0 0 49 32">
<path fill="#fff" style="fill: var(--color1, #fff)" d="M22.012 8.846l0.273-0.328c0.382 0.437 0.874 0.819 1.748 0.819s1.475-0.546 1.475-1.42c0-0.874-0.601-1.474-2.185-1.474v-0.382c1.475 0 1.966-0.601 1.966-1.365 0-0.71-0.492-1.201-1.256-1.201-0.601 0-1.092 0.328-1.475 0.71l-0.273-0.273c0.437-0.437 0.983-0.764 1.693-0.764 0.983 0 1.748 0.546 1.748 1.529 0 0.819-0.492 1.311-1.202 1.584v0.055c0.765 0.164 1.42 0.764 1.42 1.638 0 1.092-0.819 1.802-1.912 1.802-1.038-0.055-1.639-0.546-2.021-0.928z"></path>
<path fill="#fff" style="fill: var(--color1, #fff)" d="M26.927 6.389c0-2.075 0.71-3.276 1.912-3.276s1.912 1.147 1.912 3.276-0.71 3.331-1.912 3.331c-1.202 0-1.912-1.201-1.912-3.331zM30.259 6.389c0-1.911-0.546-2.894-1.42-2.894s-1.42 0.928-1.42 2.894 0.601 2.949 1.42 2.949c0.874 0 1.42-0.983 1.42-2.949z"></path>
<path fill="#fff" style="fill: var(--color1, #fff)" d="M34.082 4.86h0.491l1.147 2.567c0.164 0.382 0.328 0.819 0.492 1.201h0.055c0.164-0.382 0.382-0.819 0.491-1.201l1.092-2.567h0.492v4.751h-0.437v-2.676c0-0.382 0.055-0.928 0.055-1.365h-0.055c-0.164 0.328-0.273 0.655-0.437 0.983l-1.092 2.621h-0.328l-1.147-2.621c-0.164-0.328-0.273-0.655-0.437-0.983h-0.055c0 0.491 0.055 1.038 0.055 1.365v2.676h-0.437v-4.751h0.055z"></path>
<path fill="#fff" style="fill: var(--color1, #fff)" d="M40.2 4.86h0.437v2.403c0 0.491-0.055 1.147-0.055 1.802h0.055c0.164-0.273 0.491-0.71 0.655-1.038l2.13-3.167h0.437v4.751h-0.437v-2.403c0-0.546 0.055-1.147 0.055-1.802h-0.055c-0.164 0.273-0.491 0.71-0.656 1.038l-2.13 3.167h-0.437v-4.751z"></path>
<path fill="#fff" style="fill: var(--color1, #fff)" d="M45.716 4.86h0.437v2.075h2.731v-2.075h0.437v4.751h-0.437v-2.294h-2.731v2.294h-0.437v-4.751z"></path>
<path fill="none" stroke="#fff" style="stroke: var(--color1, #fff)" stroke-linejoin="miter" stroke-linecap="butt" stroke-miterlimit="10" stroke-width="0.5872" d="M31.461 16c0 8.519-6.937 15.454-15.457 15.454s-15.457-6.935-15.457-15.454c0-8.519 6.937-15.454 15.457-15.454"></path>
<path fill="none" stroke="#fff" style="stroke: var(--color1, #fff)" stroke-linejoin="miter" stroke-linecap="butt" stroke-miterlimit="10" stroke-width="0.5872" d="M16.276 4.642v11.631l4.096 4.696"></path>
<path fill="none" stroke="#fff" style="stroke: var(--color1, #fff)" stroke-linejoin="miter" stroke-linecap="butt" stroke-miterlimit="10" stroke-width="0.5872" d="M16.003 25.338v2.894"></path>
<path fill="none" stroke="#fff" style="stroke: var(--color1, #fff)" stroke-linejoin="miter" stroke-linecap="butt" stroke-miterlimit="10" stroke-width="0.5872" d="M24.742 16h2.895"></path>
<path fill="none" stroke="#fff" style="stroke: var(--color1, #fff)" stroke-linejoin="miter" stroke-linecap="butt" stroke-miterlimit="10" stroke-width="0.5872" d="M4.643 16h2.895"></path>
</symbol>
<symbol id="icon-box3-icon" viewBox="0 0 24 32">
<path fill="none" stroke="#fff" style="stroke: var(--color1, #fff)" stroke-linejoin="miter" stroke-linecap="butt" stroke-miterlimit="10" stroke-width="0.5614" d="M11.297 11.632h8.58"></path>
<path fill="none" stroke="#fff" style="stroke: var(--color1, #fff)" stroke-linejoin="miter" stroke-linecap="butt" stroke-miterlimit="10" stroke-width="0.5614" d="M11.297 13.24h6.448"></path>
<path fill="none" stroke="#fff" style="stroke: var(--color1, #fff)" stroke-linejoin="miter" stroke-linecap="butt" stroke-miterlimit="10" stroke-width="0.5614" d="M11.297 17.528h8.58"></path>
<path fill="none" stroke="#fff" style="stroke: var(--color1, #fff)" stroke-linejoin="miter" stroke-linecap="butt" stroke-miterlimit="10" stroke-width="0.5614" d="M11.297 19.136h6.448"></path>
<path fill="none" stroke="#fff" style="stroke: var(--color1, #fff)" stroke-linejoin="miter" stroke-linecap="butt" stroke-miterlimit="10" stroke-width="0.5614" d="M11.297 23.96h8.58"></path>
<path fill="none" stroke="#fff" style="stroke: var(--color1, #fff)" stroke-linejoin="miter" stroke-linecap="butt" stroke-miterlimit="10" stroke-width="0.5614" d="M11.297 25.568h6.448"></path>
<path fill="none" stroke="#fff" style="stroke: var(--color1, #fff)" stroke-linejoin="miter" stroke-linecap="butt" stroke-miterlimit="10" stroke-width="0.5614" d="M0.533 24.442v-22.513c0-0.75 0.639-1.394 1.386-1.394h16.786l4.903 4.931v24.603c0 0.75-0.64 1.394-1.386 1.394h-20.303c-0.746 0-1.386-0.643-1.386-1.394v-6.325"></path>
<path fill="none" stroke="#fff" style="stroke: var(--color1, #fff)" stroke-linejoin="miter" stroke-linecap="butt" stroke-miterlimit="10" stroke-width="0.5614" d="M21.529 6.164h-3.517v-3.538"></path>
<path fill="none" stroke="#fff" style="stroke: var(--color1, #fff)" stroke-linejoin="miter" stroke-linecap="butt" stroke-miterlimit="10" stroke-width="0.5614" d="M4.157 11.632l1.439 1.286 2.558-2.519"></path>
<path fill="none" stroke="#fff" style="stroke: var(--color1, #fff)" stroke-linejoin="miter" stroke-linecap="butt" stroke-miterlimit="10" stroke-width="0.5614" d="M4.157 18.064l1.439 1.286 2.558-2.519"></path>
<path fill="none" stroke="#fff" style="stroke: var(--color1, #fff)" stroke-linejoin="miter" stroke-linecap="butt" stroke-miterlimit="10" stroke-width="0.5614" d="M4.157 25.032l1.439 1.286 2.558-2.519"></path>
</symbol>
<symbol id="icon-box4-icon" viewBox="0 0 28 32">
<path fill="none" stroke="#fff" style="stroke: var(--color1, #fff)" stroke-linejoin="round" stroke-linecap="butt" stroke-miterlimit="10" stroke-width="0.547" d="M5.13 0v3.698"></path>
<path fill="none" stroke="#fff" style="stroke: var(--color1, #fff)" stroke-linejoin="round" stroke-linecap="butt" stroke-miterlimit="10" stroke-width="0.547" d="M12.135 0v3.698"></path>
<path fill="none" stroke="#fff" style="stroke: var(--color1, #fff)" stroke-linejoin="round" stroke-linecap="butt" stroke-miterlimit="10" stroke-width="0.547" d="M19.041 0v3.698"></path>
<path fill="none" stroke="#fff" style="stroke: var(--color1, #fff)" stroke-linejoin="round" stroke-linecap="butt" stroke-miterlimit="10" stroke-width="0.547" d="M15.588 0v3.698"></path>
<path fill="none" stroke="#fff" style="stroke: var(--color1, #fff)" stroke-linejoin="round" stroke-linecap="butt" stroke-miterlimit="10" stroke-width="0.547" d="M8.632 0v3.698"></path>
<path fill="none" stroke="#fff" style="stroke: var(--color1, #fff)" stroke-linejoin="round" stroke-linecap="butt" stroke-miterlimit="10" stroke-width="0.547" d="M7.054 2.071h-0.395"></path>
<path fill="none" stroke="#fff" style="stroke: var(--color1, #fff)" stroke-linejoin="round" stroke-linecap="butt" stroke-miterlimit="10" stroke-width="0.547" d="M10.556 2.071h-0.444"></path>
<path fill="none" stroke="#fff" style="stroke: var(--color1, #fff)" stroke-linejoin="round" stroke-linecap="butt" stroke-miterlimit="10" stroke-width="0.547" d="M14.059 2.022h-0.395"></path>
<path fill="none" stroke="#fff" style="stroke: var(--color1, #fff)" stroke-linejoin="round" stroke-linecap="butt" stroke-miterlimit="10" stroke-width="0.547" d="M17.462 2.022h-0.395"></path>
<path fill="none" stroke="#fff" style="stroke: var(--color1, #fff)" stroke-linejoin="miter" stroke-linecap="butt" stroke-miterlimit="10" stroke-width="0.547" d="M21.31 1.923c1.332 0 2.368 1.035 2.368 2.367v21.892c0 1.331-1.036 2.367-2.368 2.367h-18.449c-1.332 0-2.368-1.035-2.368-2.367v-21.892c0-1.331 1.036-2.367 2.368-2.367"></path>
<path fill="none" stroke="#fff" style="stroke: var(--color1, #fff)" stroke-linejoin="miter" stroke-linecap="butt" stroke-miterlimit="10" stroke-width="0.547" d="M7.547 8.826h-3.354v3.353h3.354v-3.353z"></path>
<path fill="none" stroke="#fff" style="stroke: var(--color1, #fff)" stroke-linejoin="miter" stroke-linecap="butt" stroke-miterlimit="10" stroke-width="0.547" d="M13.763 8.826h-3.354v3.353h3.354v-3.353z"></path>
<path fill="none" stroke="#fff" style="stroke: var(--color1, #fff)" stroke-linejoin="miter" stroke-linecap="butt" stroke-miterlimit="10" stroke-width="0.547" d="M19.978 8.826h-3.354v3.353h3.354v-3.353z"></path>
<path fill="none" stroke="#fff" style="stroke: var(--color1, #fff)" stroke-linejoin="miter" stroke-linecap="butt" stroke-miterlimit="10" stroke-width="0.547" d="M7.547 14.792h-3.354v3.353h3.354v-3.353z"></path>
<path fill="none" stroke="#fff" style="stroke: var(--color1, #fff)" stroke-linejoin="miter" stroke-linecap="butt" stroke-miterlimit="10" stroke-width="0.547" d="M13.763 14.792h-3.354v3.353h3.354v-3.353z"></path>
<path fill="none" stroke="#fff" style="stroke: var(--color1, #fff)" stroke-linejoin="miter" stroke-linecap="butt" stroke-miterlimit="10" stroke-width="0.547" d="M19.978 14.792h-3.354v3.353h3.354v-3.353z"></path>
<path fill="none" stroke="#fff" style="stroke: var(--color1, #fff)" stroke-linejoin="miter" stroke-linecap="butt" stroke-miterlimit="10" stroke-width="0.547" d="M7.547 20.807h-3.354v3.353h3.354v-3.353z"></path>
<path fill="none" stroke="#fff" style="stroke: var(--color1, #fff)" stroke-linejoin="miter" stroke-linecap="butt" stroke-miterlimit="10" stroke-width="0.547" d="M13.763 20.807h-3.354v3.353h3.354v-3.353z"></path>
<path fill="#976855" style="fill: var(--color2, #976855); stroke: var(--color1, #fff)" stroke="#fff" stroke-linejoin="miter" stroke-linecap="butt" stroke-miterlimit="10" stroke-width="0.547" d="M21.458 31.507c3.133 0 5.673-2.539 5.673-5.67s-2.54-5.67-5.673-5.67-5.673 2.539-5.673 5.67c0 3.132 2.54 5.67 5.673 5.67z"></path>
<path fill="none" stroke="#fff" style="stroke: var(--color1, #fff)" stroke-linejoin="miter" stroke-linecap="butt" stroke-miterlimit="10" stroke-width="0.547" d="M19.238 26.083l1.727 1.479 2.96-2.958"></path>
</symbol>
<symbol id="icon-regtovchange-icon" viewBox="0 0 38 32">
<path fill="none" stroke="#a48460" style="stroke: var(--color3, #a48460)" stroke-linejoin="miter" stroke-linecap="butt" stroke-miterlimit="10" stroke-width="0.7619" d="M30.611 6.348c-0.88 0.377-1.949 0.566-3.143 0.566"></path>
<path fill="none" stroke="#a48460" style="stroke: var(--color3, #a48460)" stroke-linejoin="miter" stroke-linecap="butt" stroke-miterlimit="10" stroke-width="0.7619" d="M30.611 12.257v-5.909c1.446-0.566 2.389-1.509 2.389-2.577 0-1.76-2.451-3.143-5.469-3.143s-5.531 1.383-5.531 3.143c0 1.069 0.943 2.011 2.326 2.577v5.909c0 1.509-1.006 2.514-2.451 3.080-1.383 0.503-2.263 1.446-2.263 2.451v4.4c0 2.011 3.52 3.646 7.857 3.646s7.857-1.634 7.857-3.646v-4.4c0-1.006-0.88-1.886-2.263-2.451-1.446-0.566-2.451-1.634-2.451-3.080z"></path>
<path fill="none" stroke="#a48460" style="stroke: var(--color3, #a48460)" stroke-linejoin="miter" stroke-linecap="butt" stroke-miterlimit="10" stroke-width="0.7619" d="M22.126 20.743c1.383 0.629 3.269 1.069 5.343 1.069 4.337 0 7.857-1.76 7.857-3.897"></path>
<path fill="none" stroke="#505050" style="stroke: var(--color4, #505050)" stroke-linejoin="miter" stroke-linecap="butt" stroke-miterlimit="10" stroke-width="0.7619" d="M20.429 6.097h-12.823l-6.789 25.143h36.080l-1.571-5.657"></path>
<path fill="none" stroke="#505050" style="stroke: var(--color4, #505050)" stroke-linejoin="miter" stroke-linecap="butt" stroke-miterlimit="10" stroke-width="0.7619" d="M19.611 24.954l-0.943 1.571-11.817-3.080 8.36-11.691 7.543 1.257"></path>
</symbol>
<symbol id="icon-regtov-icon" viewBox="0 0 36 32">
<path fill="none" stroke="#a48460" style="stroke: var(--color3, #a48460)" stroke-linejoin="miter" stroke-linecap="butt" stroke-miterlimit="10" stroke-width="0.7273" d="M17.69 21.683c0 0-0.123-2.457-1.597-3.931s-12.531-12.531-12.531-12.531c-0.737-0.737-1.843-0.921-2.518-0.246-0.614 0.676-0.553 1.904 0.184 2.58 0 0 11.057 11.057 12.531 12.531s3.931 1.597 3.931 1.597z"></path>
<path fill="none" stroke="#505050" style="stroke: var(--color4, #505050)" stroke-linejoin="miter" stroke-linecap="butt" stroke-miterlimit="10" stroke-width="0.7273" d="M31.818 4.545h3.931v-0.798c0-1.72-1.413-3.133-3.133-3.133h-5.467"></path>
<path fill="none" stroke="#505050" style="stroke: var(--color4, #505050)" stroke-linejoin="miter" stroke-linecap="butt" stroke-miterlimit="10" stroke-width="0.7273" d="M22.727 28.071h-16.585c0.491 1.597 2.273 3.133 3.808 3.133h16.032c-1.597 0-2.887-1.536-3.256-3.133z"></path>
<path fill="none" stroke="#505050" style="stroke: var(--color4, #505050)" stroke-linejoin="miter" stroke-linecap="butt" stroke-miterlimit="10" stroke-width="0.7273" d="M13.759 6.88h12.531"></path>
<path fill="none" stroke="#505050" style="stroke: var(--color4, #505050)" stroke-linejoin="miter" stroke-linecap="butt" stroke-miterlimit="10" stroke-width="0.7273" d="M13.759 10.012h12.531"></path>
<path fill="none" stroke="#505050" style="stroke: var(--color4, #505050)" stroke-linejoin="miter" stroke-linecap="butt" stroke-miterlimit="10" stroke-width="0.7273" d="M13.759 13.145h10.995"></path>
<path fill="none" stroke="#505050" style="stroke: var(--color4, #505050)" stroke-linejoin="miter" stroke-linecap="butt" stroke-miterlimit="10" stroke-width="0.7273" d="M21.007 23.342h5.283"></path>
<path fill="none" stroke="#a48460" style="stroke: var(--color3, #a48460)" stroke-linejoin="miter" stroke-linecap="butt" stroke-miterlimit="10" stroke-width="0.7273" d="M3.87 10.749l1.843-1.843"></path>
<path fill="none" stroke="#505050" style="stroke: var(--color4, #505050)" stroke-linejoin="miter" stroke-linecap="butt" stroke-miterlimit="10" stroke-width="0.7273" d="M10.627 11.486v-7.74c0-1.72 1.413-3.133 3.133-3.133h19.226c-1.843 0-3.563 1.351-3.563 3.256v24.201c0 1.904-1.29 3.133-3.133 3.133h-0.799"></path>
<path fill="none" stroke="#505050" style="stroke: var(--color4, #505050)" stroke-linejoin="miter" stroke-linecap="butt" stroke-miterlimit="10" stroke-width="0.7273" d="M10.627 28.071v-6.941"></path>
</symbol>
<symbol id="icon-regfopchange-icon" viewBox="0 0 39 32">
<path fill="none" stroke="#a48460" style="stroke: var(--color3, #a48460)" stroke-linejoin="miter" stroke-linecap="butt" stroke-miterlimit="10" stroke-width="0.7442" d="M35.593 25.691c0.856-0.375 1.499-1.231 2.301-2.783-2.087-1.285-4.389-0.535-5.834 2.248"></path>
<path fill="none" stroke="#a48460" style="stroke: var(--color3, #a48460)" stroke-linejoin="miter" stroke-linecap="butt" stroke-miterlimit="10" stroke-width="0.7442" d="M29.063 29.331c1.445 1.499 3.64 2.516 6.423-0.535-1.82-1.873-4.335-1.766-6.423 0.535z"></path>
<path fill="none" stroke="#a48460" style="stroke: var(--color3, #a48460)" stroke-linejoin="miter" stroke-linecap="butt" stroke-miterlimit="10" stroke-width="0.7442" d="M36.45 19.59c0.91-0.696 1.606-1.927 1.713-4.175-2.516-0.161-4.389 1.606-4.55 4.817"></path>
<path fill="none" stroke="#a48460" style="stroke: var(--color3, #a48460)" stroke-linejoin="miter" stroke-linecap="butt" stroke-miterlimit="10" stroke-width="0.7442" d="M35.861 13.22c0.589-0.963 0.803-2.409 0.161-4.55-2.409 0.803-3.533 3.265-2.569 6.316"></path>
<path fill="none" stroke="#a48460" style="stroke: var(--color3, #a48460)" stroke-linejoin="miter" stroke-linecap="butt" stroke-miterlimit="10" stroke-width="0.7442" d="M3.104 25.638c-0.856-0.375-1.499-1.231-2.302-2.783 2.087-1.285 4.389-0.535 5.834 2.248"></path>
<path fill="none" stroke="#a48460" style="stroke: var(--color3, #a48460)" stroke-linejoin="miter" stroke-linecap="butt" stroke-miterlimit="10" stroke-width="0.7442" d="M9.634 29.277c-1.445 1.499-3.64 2.516-6.423-0.535 1.873-1.873 4.389-1.766 6.423 0.535z"></path>
<path fill="none" stroke="#a48460" style="stroke: var(--color3, #a48460)" stroke-linejoin="miter" stroke-linecap="butt" stroke-miterlimit="10" stroke-width="0.7442" d="M2.302 19.536c-0.91-0.696-1.606-1.927-1.713-4.175 2.516-0.161 4.389 1.606 4.55 4.817"></path>
<path fill="none" stroke="#a48460" style="stroke: var(--color3, #a48460)" stroke-linejoin="miter" stroke-linecap="butt" stroke-miterlimit="10" stroke-width="0.7442" d="M2.89 13.22c-0.589-0.963-0.803-2.409-0.161-4.55 2.409 0.803 3.533 3.265 2.569 6.316"></path>
<path fill="none" stroke="#505050" style="stroke: var(--color4, #505050)" stroke-linejoin="miter" stroke-linecap="butt" stroke-miterlimit="10" stroke-width="0.7442" d="M13.649 24.193h-4.121v-23.657h19.59v23.657h-4.068"></path>
<path fill="none" stroke="#505050" style="stroke: var(--color4, #505050)" stroke-linejoin="miter" stroke-linecap="butt" stroke-miterlimit="10" stroke-width="0.7442" d="M23.443 21.142c0 2.248-1.82 4.068-4.068 4.068s-4.068-1.82-4.068-4.068c0-2.248 1.82-4.068 4.068-4.068 2.195 0 4.068 1.82 4.068 4.068z"></path>
<path fill="none" stroke="#505050" style="stroke: var(--color4, #505050)" stroke-linejoin="miter" stroke-linecap="butt" stroke-miterlimit="10" stroke-width="0.7442" d="M20.981 25.049l1.606 5.674-3.265-1.606-3.265 1.606 1.659-5.674"></path>
<path fill="none" stroke="#505050" style="stroke: var(--color4, #505050)" stroke-linejoin="miter" stroke-linecap="butt" stroke-miterlimit="10" stroke-width="0.7442" d="M13.649 11.133h11.401"></path>
<path fill="none" stroke="#505050" style="stroke: var(--color4, #505050)" stroke-linejoin="miter" stroke-linecap="butt" stroke-miterlimit="10" stroke-width="0.7442" d="M16.057 7.868h6.53"></path>
</symbol>
<symbol id="icon-regfop-icon" viewBox="0 0 28 32">
<path fill="none" stroke="#505050" style="stroke: var(--color4, #505050)" stroke-linejoin="miter" stroke-linecap="butt" stroke-miterlimit="10" stroke-width="0.5872" d="M23.937 3.953h3.412v-0.65c0-1.516-1.246-2.762-2.762-2.762h-7.582"></path>
<path fill="none" stroke="#505050" style="stroke: var(--color4, #505050)" stroke-linejoin="miter" stroke-linecap="butt" stroke-miterlimit="10" stroke-width="0.5872" d="M3.953 7.419h14.459"></path>
<path fill="none" stroke="#505050" style="stroke: var(--color4, #505050)" stroke-linejoin="miter" stroke-linecap="butt" stroke-miterlimit="10" stroke-width="0.5872" d="M3.953 10.181h14.459"></path>
<path fill="none" stroke="#505050" style="stroke: var(--color4, #505050)" stroke-linejoin="miter" stroke-linecap="butt" stroke-miterlimit="10" stroke-width="0.5872" d="M3.953 12.889h8.936"></path>
<path fill="none" stroke="#505050" style="stroke: var(--color4, #505050)" stroke-linejoin="miter" stroke-linecap="butt" stroke-miterlimit="10" stroke-width="0.5872" d="M6.065 21.175h3.412"></path>
<path fill="none" stroke="#505050" style="stroke: var(--color4, #505050)" stroke-linejoin="miter" stroke-linecap="butt" stroke-miterlimit="10" stroke-width="0.5872" d="M3.953 21.175h1.408"></path>
<path fill="none" stroke="#505050" style="stroke: var(--color4, #505050)" stroke-linejoin="miter" stroke-linecap="butt" stroke-miterlimit="10" stroke-width="0.5872" d="M12.51 26.644h-11.968v-23.341c0-1.516 1.246-2.762 2.762-2.762h21.662c-1.625 0-3.087 1.191-3.087 2.816v23.287h-3.033"></path>
<path fill="none" stroke="#a48460" style="stroke: var(--color3, #a48460)" stroke-linejoin="miter" stroke-linecap="butt" stroke-miterlimit="10" stroke-width="0.5872" d="M17.709 23.233v7.69l-2.058-1.354-2.058 1.354v-7.69"></path>
<path fill="none" stroke="#a48460" style="stroke: var(--color3, #a48460)" stroke-linejoin="miter" stroke-linecap="butt" stroke-miterlimit="10" stroke-width="0.5872" d="M19.117 20.471c0 1.895-1.516 3.412-3.412 3.412s-3.412-1.516-3.412-3.412c0-1.895 1.516-3.412 3.412-3.412 1.841 0 3.412 1.516 3.412 3.412z"></path>
</symbol>
<symbol id="icon-instagram" viewBox="0 0 31 32">
<path fill="none" stroke="#fff" style="stroke: var(--color1, #fff)" stroke-linejoin="miter" stroke-linecap="butt" stroke-miterlimit="10" stroke-width="0.6038" d="M28.474 0.425h-25.551c-1.336 0-2.505 1.106-2.505 2.553v26.043c0 1.362 1.085 2.553 2.505 2.553h25.551c1.336 0 2.505-1.106 2.505-2.553v-26.043c0-1.447-1.169-2.553-2.505-2.553z"></path>
<path fill="#fff" style="fill: var(--color1, #fff)" d="M15.698 9.021c2.255 0 2.505 0 3.34 0.085 0.835 0 1.253 0.17 1.587 0.255 0.418 0.17 0.668 0.34 0.919 0.596 0.334 0.34 0.501 0.596 0.584 0.936s0.25 0.766 0.25 1.617c0 0.936 0.084 1.191 0.084 3.404 0 2.298 0 2.553-0.084 3.404 0 0.851-0.167 1.277-0.25 1.617-0.167 0.426-0.334 0.681-0.584 0.936s-0.584 0.511-0.919 0.596c-0.334 0.085-0.752 0.255-1.587 0.255-0.919 0-1.169 0.085-3.34 0.085-2.255 0-2.505 0-3.34-0.085-0.835 0-1.253-0.17-1.587-0.255-0.418-0.17-0.668-0.34-0.918-0.596-0.251-0.34-0.501-0.596-0.585-0.936s-0.251-0.766-0.251-1.617c0-0.936-0.084-1.192-0.084-3.404 0-2.298 0-2.553 0.084-3.404 0-0.851 0.167-1.277 0.251-1.617 0.167-0.426 0.334-0.681 0.585-0.936 0.334-0.34 0.584-0.511 0.918-0.596s0.752-0.255 1.587-0.255c0.835-0.085 1.086-0.085 3.34-0.085zM15.698 7.489c-2.255 0-2.588 0-3.424 0.085-0.919 0-1.503 0.17-2.004 0.426-0.584 0.255-1.002 0.511-1.503 1.021s-0.752 0.936-1.002 1.532c-0.167 0.511-0.334 1.191-0.418 2.043 0 0.936-0.083 1.191-0.083 3.489s0 2.638 0.083 3.489c0 0.936 0.167 1.532 0.418 2.043 0.251 0.596 0.501 1.021 1.002 1.532s0.919 0.766 1.503 1.021c0.501 0.17 1.169 0.34 2.004 0.426 0.919 0 1.169 0.085 3.424 0.085s2.588 0 3.424-0.085c0.919 0 1.503-0.17 2.004-0.426 0.584-0.255 1.002-0.511 1.503-1.021s0.752-0.936 1.002-1.532c0.167-0.511 0.334-1.192 0.418-2.043 0-0.936 0.084-1.192 0.084-3.489s0-2.638-0.084-3.489c0-0.936-0.167-1.532-0.418-2.043-0.25-0.596-0.501-1.021-1.002-1.532s-0.918-0.766-1.503-1.021c-0.501-0.17-1.169-0.34-2.004-0.426-0.919-0.085-1.169-0.085-3.424-0.085z"></path>
<path fill="#fff" style="fill: var(--color1, #fff)" d="M15.698 11.574c-2.338 0-4.259 1.957-4.259 4.34s1.921 4.34 4.259 4.34 4.259-1.957 4.259-4.34c0-2.383-1.921-4.34-4.259-4.34zM15.698 18.808c-1.503 0-2.755-1.277-2.755-2.809s1.252-2.809 2.755-2.809c1.503 0 2.755 1.277 2.755 2.809s-1.252 2.809-2.755 2.809z"></path>
<path fill="#fff" style="fill: var(--color1, #fff)" d="M21.126 11.404c0 0.596-0.418 1.021-1.002 1.021s-1.002-0.426-1.002-1.021c0-0.596 0.418-1.021 1.002-1.021s1.002 0.511 1.002 1.021z"></path>
</symbol>
<symbol id="icon-facebook" viewBox="0 0 32 32">
<path fill="none" stroke="#fff" style="stroke: var(--color1, #fff)" stroke-linejoin="miter" stroke-linecap="butt" stroke-miterlimit="10" stroke-width="0.6038" d="M29.021 0.425h-26.043c-1.362 0-2.553 1.106-2.553 2.553v26.043c0 1.362 1.106 2.553 2.553 2.553h26.043c1.362 0 2.553-1.106 2.553-2.553v-26.043c0-1.447-1.192-2.553-2.553-2.553z"></path>
<path fill="#fff" style="fill: var(--color1, #fff)" d="M16.34 31.574v-11.064h-3.915v-4.34h3.745c0 0 0-2.128 0-3.745 0-1.532 0.511-4.936 4.511-4.936s4.511 0 4.511 0v3.66c0 0-2.808-0.085-3.66 0.34-0.596 0.255-0.596 0.936-0.596 1.617 0 2.043 0 3.064 0 3.064h4.255l-0.766 4.34h-3.489v10.979h-4.596v0.085z"></path>
</symbol>
<symbol id="icon-menu" viewBox="0 0 32 32">
<path d="M2 6h28v6h-28zM2 14h28v6h-28zM2 22h28v6h-28z"></path>
</symbol>
</defs>
</svg>
