<?xml version="1.0" encoding="utf-8"?>
<!-- Generator: Adobe Illustrator 22.0.1, SVG Export Plug-In . SVG Version: 6.00 Build 0)  -->
<svg version="1.1" id="Слой_1" xmlns="http://www.w3.org/2000/svg" xmlns:xlink="http://www.w3.org/1999/xlink" x="0px" y="0px"
	 viewBox="0 0 886.7 174" style="enable-background:new 0 0 886.7 174;" xml:space="preserve">
<style type="text/css">
	.st0{fill:#E34400;}
</style>
<title>logo</title>
<g id="Слой_2_1_">
	<g id="Layer_1">
		<path d="M3.4,139.5h10v-108h-10v-4.6H65v4.6H53.5v108h6c19.8,0,25.8-20.8,29.7-41.9H93v46.5H3.4V139.5z"/>
		<path d="M97.9,139.5h9.7v-108h-9.7v-4.6h87.9l0.7,41.1h-4.3c-3.7-18.6-12.6-36.5-26.8-36.5h-8v51.2h2.2c4.1,0,13.2-5.6,14.4-23
			h4.3v51.6H164c-1.2-18.4-10.3-24-14.4-24h-2.3v52.2h8.9c10,0,20.3-9.5,27.5-40.1h3.9l-0.7,44.6H97.8L97.9,139.5z"/>
		<path d="M193.7,139.5h3.4c3.1,0,8.8-2.7,15.5-13.7l19.1-31.6l-31.6-62.7h-6.4v-4.6h61.6v4.6h-9.6L263,65.3l9.6-15.9
			c6.9-11.5,1-17.9-5.2-17.9h-4.2v-4.6h36.7v4.6h-4.2c-4.5,0-11.5,6.6-16.9,15.6l-13.5,22.7l35.2,69.8h5.1v4.6H245v-4.7h9.8
			l-20.6-40.9l-14,24c-1.7,3-2.6,6.4-2.5,9.8c0,5.4,4.2,7.1,7.6,7.1h6v4.6h-37.6V139.5z"/>
		<path class="st0" d="M362.7,146.6c-30.1,0-51.3-28.4-51.3-61.2c0-37.7,24.4-61,51.3-61c27.5,0,51.5,24.7,51.5,61
			S391.4,146.6,362.7,146.6z M362.7,142c6.3,0,8.9-6.1,8.9-12.8V50.6c0-8.5-0.1-21.6-8.9-21.6c-8.4,0-8.8,13.2-8.8,21.6v78.6
			C354,135.9,356.8,142,362.7,142z"/>
		<path d="M418,139.5h10.2v-108h-10v-4.6h67.3c28.2,0,37.6,18.1,37.6,34.3c0,16.6-9.4,34.8-37.6,34.8h-17.9v43.5h12.2v4.6H418V139.5
			z M472.6,91.5c5.8,0,9.4-5.2,9.4-18.8V48.4c0-7.8-2.1-16.9-10.2-16.9h-4.2v60H472.6z"/>
		<path d="M580.9,146.6c-30.1,0-51.3-28.4-51.3-61.2c0-37.7,24.4-61,51.3-61c27.5,0,51.5,24.7,51.5,61S609.6,146.6,580.9,146.6z
			 M580.9,142c6.3,0,8.9-6.1,8.9-12.8V50.6c0-8.5-0.1-21.6-8.9-21.6c-8.4,0-8.8,13.2-8.8,21.6v78.6C572.2,135.9,575,142,580.9,142z"
			/>
		<path d="M636.2,139.5h10v-108h-10v-4.6h61.6v4.6h-11.5v108h6c19.8,0,25.8-20.8,29.7-41.9h3.8v46.5h-89.6V139.5z"/>
		<path d="M732.6,139.5h10v-108h-10v-4.6h60.5v4.6h-10v108h10v4.6h-60.5V139.5z"/>
		<path d="M878.4,108.7c0,28.9-20.3,37.9-39.3,37.9c-7.2,0-14.7-3.6-21-7.9l-14.1,7.9h-3.3l-0.9-41.9h4.2
			c6.5,20,19.4,37.4,37.2,37.4c5.5,0,12.6-2.9,12.6-11.3c0-10-8.5-14.2-14.4-17.6l-10-5.7c-19-11-28.7-25.7-28.7-44.1
			c0-24.7,13.8-38.9,32.1-38.9c7.3,0,14.4,2.9,21,6.9l14.1-6.9h3l1,38.7h-3.5C861.9,44.9,849.8,29,833.3,29c-5,0-11.1,3.4-11.1,11
			c0,9.1,8.6,12.9,13.9,16.4L862.8,74C871.1,79.5,878.4,93,878.4,108.7z"/>
		<rect y="0" width="886.7" height="2"/>
		<rect y="172" width="886.7" height="2"/>
	</g>
</g>
</svg>
